<svg width="200" height="150" viewBox="0 0 200 150" fill="none" xmlns="http://www.w3.org/2000/svg">
<path fill-rule="evenodd" clip-rule="evenodd" d="M47.1111 71.8935C47.1111 60.1289 56.6624 50.5917 68.4445 50.5917C80.2265 50.5917 89.7778 60.1289 89.7778 71.8935C89.7778 83.6583 80.2266 93.1952 68.4445 93.1952C56.6623 93.1952 47.1111 83.6583 47.1111 71.8935ZM68.4445 31.9526C46.3531 31.9526 28.4445 49.8348 28.4445 71.8935C28.4445 93.9523 46.3531 111.834 68.4445 111.834C76.0092 111.834 83.0835 109.737 89.1161 106.094C94.7221 131.199 117.086 150 143.882 150C174.912 150 200 124.786 200 93.766C200 62.746 174.912 37.5316 143.882 37.5316C128.38 37.5316 114.36 43.8246 104.211 53.9907C97.6369 40.9214 84.0896 31.9526 68.4445 31.9526ZM106.429 93.766C106.429 72.9654 123.235 56.1706 143.882 56.1706C164.528 56.1706 181.333 72.9652 181.333 93.766C181.333 114.566 164.528 131.361 143.882 131.361C123.235 131.361 106.429 114.566 106.429 93.766Z" fill="#0C8CE9"/>
<path fill-rule="evenodd" clip-rule="evenodd" d="M78.681 51.3809C78.681 33.2608 93.3191 18.6391 111.293 18.6391C129.267 18.6391 143.905 33.2607 143.905 51.3809C143.905 69.501 129.267 84.1225 111.293 84.1225C93.3191 84.1225 78.681 69.5009 78.681 51.3809ZM111.293 0C82.9355 0 60.0143 23.0412 60.0143 51.3809C60.0143 55.5024 60.4991 59.5118 61.4149 63.3546C56.2861 61.3068 50.689 60.1802 44.8256 60.1802C20.0319 60.1802 0 80.3242 0 105.09C0 129.856 20.0316 150 44.8256 150C69.6195 150 89.6516 129.856 89.6516 105.09C89.6516 102.569 89.4436 100.096 89.0453 97.6882C95.7716 100.938 103.317 102.762 111.293 102.762C139.651 102.762 162.572 79.7204 162.572 51.3809C162.572 23.0413 139.651 0 111.293 0ZM18.6667 105.09C18.6667 90.5441 30.4156 78.8192 44.8256 78.8192C59.2356 78.8192 70.9846 90.5441 70.9846 105.09C70.9846 119.636 59.2355 131.361 44.8256 131.361C30.4158 131.361 18.6667 119.636 18.6667 105.09Z" fill="#4AC44F"/>
<path d="M44.8256 150H143.556C118.222 149.556 105.333 134.467 102.147 131.361H81.1848H44.8256V150Z" fill="#4AC44F"/>
</svg>
