<svg width="225" height="169" viewBox="0 0 225 169" fill="none" xmlns="http://www.w3.org/2000/svg">
<path fill-rule="evenodd" clip-rule="evenodd" d="M70.4974 81.2632C70.4974 69.4036 79.9621 59.7895 91.6373 59.7895C103.313 59.7895 112.777 69.4036 112.777 81.2632C112.777 93.1229 103.313 102.737 91.6373 102.737C79.962 102.737 70.4974 93.1229 70.4974 81.2632ZM91.6373 41C69.7462 41 52 59.0264 52 81.2632C52 103.5 69.7462 121.526 91.6373 121.526C99.1334 121.526 106.144 119.413 112.122 115.74C117.677 141.048 139.838 160 166.391 160C197.139 160 222 134.582 222 103.312C222 72.0418 197.139 46.624 166.391 46.624C151.029 46.624 137.136 52.9678 127.079 63.216C120.565 50.0411 107.141 41 91.6373 41ZM129.278 103.312C129.278 82.3437 145.931 65.4134 166.391 65.4134C186.85 65.4134 203.503 82.3436 203.503 103.312C203.503 124.28 186.85 141.211 166.391 141.211C145.931 141.211 129.278 124.28 129.278 103.312Z" fill="white" fill-opacity="0.7"/>
<path fill-rule="evenodd" clip-rule="evenodd" d="M102.404 60.7234C102.404 42.4825 116.991 27.7633 134.902 27.7633C152.812 27.7633 167.399 42.4824 167.399 60.7234C167.399 78.9644 152.812 93.6833 134.902 93.6833C116.991 93.6833 102.404 78.9642 102.404 60.7234ZM134.902 9C106.644 9 83.8033 32.1949 83.8033 60.7234C83.8033 64.8724 84.2864 68.9086 85.199 72.777C80.0882 70.7155 74.5108 69.5814 68.668 69.5814C43.9615 69.5814 24 89.8597 24 114.79C24 139.721 43.9612 160 68.668 160C93.3747 160 113.336 139.721 113.336 114.79C113.336 112.253 113.129 109.763 112.732 107.339C119.435 110.611 126.954 112.447 134.902 112.447C163.16 112.447 186 89.2519 186 60.7234C186 32.1949 163.16 9 134.902 9ZM42.601 114.79C42.601 100.148 54.3086 88.3447 68.668 88.3447C83.0274 88.3447 94.7351 100.148 94.7351 114.79C94.7351 129.434 83.0272 141.237 68.668 141.237C54.3089 141.237 42.601 129.434 42.601 114.79Z" fill="white" fill-opacity="0.7"/>
<path d="M68.668 160H167.051C141.807 159.553 128.963 144.364 125.788 141.237H104.899H68.668V160Z" fill="white" fill-opacity="0.7"/>
<path d="M12 9L136 9.00001" stroke="white" stroke-width="3"/>
<path d="M0 42L87 42" stroke="white" stroke-width="3"/>
<path d="M9 33L9 133" stroke="white" stroke-width="3"/>
<path d="M0 121L94 121" stroke="white" stroke-width="3"/>
<path d="M12 160L69 160" stroke="white" stroke-width="3"/>
<path d="M21 0L21 169" stroke="white" stroke-width="3"/>
<path fill-rule="evenodd" clip-rule="evenodd" d="M70.6062 81.2632C70.6062 69.4036 80.1266 59.7895 91.8705 59.7895C103.614 59.7895 113.135 69.4036 113.135 81.2632C113.135 93.1229 103.614 102.737 91.8705 102.737C80.1265 102.737 70.6062 93.1229 70.6062 81.2632ZM91.8705 41C69.8506 41 52 59.0264 52 81.2632C52 103.5 69.8506 121.526 91.8705 121.526C99.4107 121.526 106.462 119.413 112.475 115.74C118.063 141.048 140.355 160 167.064 160C197.993 160 223 134.582 223 103.312C223 72.0418 197.993 46.624 167.064 46.624C151.611 46.624 137.637 52.9678 127.521 63.216C120.968 50.0411 107.465 41 91.8705 41ZM129.732 103.312C129.732 82.3437 146.483 65.4134 167.064 65.4134C187.643 65.4134 204.394 82.3436 204.394 103.312C204.394 124.28 187.643 141.211 167.064 141.211C146.483 141.211 129.732 124.28 129.732 103.312Z" stroke="white" stroke-width="3"/>
<path d="M68.668 160C43.9612 160 24 139.721 24 114.79C24 89.8597 43.9615 69.5814 68.668 69.5814C74.5108 69.5814 80.0882 70.7155 85.199 72.777C84.2864 68.9086 83.8033 64.8724 83.8033 60.7234C83.8033 32.1949 106.644 9 134.902 9C163.16 9 186 32.1949 186 60.7234C186 89.2519 163.16 112.447 134.902 112.447C126.954 112.447 119.435 110.611 112.732 107.339C113.129 109.763 113.336 112.253 113.336 114.79C113.336 139.721 93.3747 160 68.668 160ZM68.668 160H167.051C141.807 159.553 128.963 144.364 125.788 141.237H104.899H68.668M68.668 160V141.237M68.668 141.237C83.0272 141.237 94.7351 129.434 94.7351 114.79C94.7351 100.148 83.0274 88.3447 68.668 88.3447C54.3086 88.3447 42.601 100.148 42.601 114.79C42.601 129.434 54.3089 141.237 68.668 141.237ZM102.404 60.7234C102.404 42.4825 116.991 27.7633 134.902 27.7633C152.812 27.7633 167.399 42.4824 167.399 60.7234C167.399 78.9644 152.812 93.6833 134.902 93.6833C116.991 93.6833 102.404 78.9642 102.404 60.7234Z" stroke="white" stroke-width="3"/>
</svg>
